<?xml version="1.0" encoding="UTF-8" standalone="no"?>
<svg
   version="1.1"
   width="45"
   height="50"
   viewBox="0 0 45 50"
   sodipodi:docname="skull.svg"
   inkscape:version="1.2 (dc2aedaf03, 2022-05-15)"
   xmlns:dc="http://purl.org/dc/elements/1.1/"
   xmlns:cc="http://creativecommons.org/ns#"
   xmlns:rdf="http://www.w3.org/1999/02/22-rdf-syntax-ns#"
   xmlns:svg="http://www.w3.org/2000/svg"
   xmlns="http://www.w3.org/2000/svg"
   xmlns:sodipodi="http://sodipodi.sourceforge.net/DTD/sodipodi-0.dtd"
   xmlns:inkscape="http://www.inkscape.org/namespaces/inkscape">
  <sodipodi:namedview
     pagecolor="#ffffff"
     bordercolor="#666666"
     borderopacity="1"
     objecttolerance="10"
     gridtolerance="10"
     guidetolerance="10"
     showgrid="false"
     units="px"
     inkscape:pageopacity="0"
     inkscape:pageshadow="2"
     inkscape:cx="27"
     inkscape:cy="27"
     inkscape:window-width="1920"
     inkscape:window-height="1001"
     inkscape:window-x="0"
     inkscape:window-y="0"
     inkscape:window-maximized="1"
     inkscape:zoom="10"
     inkscape:document-rotation="0"
     inkscape:showpageshadow="2"
     inkscape:pagecheckerboard="0"
     inkscape:deskcolor="#d1d1d1" />
  <path
     d="M 0.50593392,32.51113 C -0.99456708,27.658799 1.3205279,17.444996 1.3205279,13.876702 1.3205279,10.308407 13.539455,0 22.5,0 c 8.960546,0 21.179472,10.308407 21.179472,13.876702 0,3.568294 2.315095,13.782097 0.814594,18.634428 -1.500499,4.85233 -4.637468,9.085334 -7.086976,9.515452 -2.449508,0.430118 -4.705113,1.969366 -5.131949,4.202658 -0.426835,2.233293 -3.797935,2.743274 -6.109463,3.330409 -2.311529,0.587135 -5.019826,0.587135 -7.331356,0 C 16.522794,48.972514 13.061198,48.481021 12.72486,46.22924 12.388522,43.97746 9.8542149,42.426806 7.5929109,42.026582 5.3316069,41.626358 2.0064339,37.36346 0.50593392,32.51113 Z M 7.0226939,30.052971 c 0,4.440544 1.058974,6.898703 3.0140021,6.898703 4.561733,0 9.693681,-2.140977 9.693681,-6.42293 0,-2.458159 -7.249896,-4.36125 -8.390329,-4.36125 -3.0140021,0 -4.3173541,1.268727 -4.3173541,3.885477 z M 18.834322,41.788696 20.463512,42.978127 22.5,41.788696 24.536488,42.978127 26.165678,41.788696 22.5,35.445061 Z m 6.435301,-11.259952 c 0,4.281953 5.13195,6.42293 9.693681,6.42293 1.955029,0 3.014002,-2.458159 3.014002,-6.898703 0,-2.61675 -1.303352,-3.885477 -4.317354,-3.885477 -1.140433,0 -8.390329,1.903091 -8.390329,4.36125 z"
     sodipodi:nodetypes="zzzzzzzzzzzzssssscccccccsssss" />
</svg>
